<svg id="Layer_1" enable-background="new 0 0 511.927 511.927" height="512" viewBox="0 0 511.927 511.927" width="512" xmlns="http://www.w3.org/2000/svg"><g><g><path d="m440.104 492.978s-9.82 1.47-27.38 3.36c-6.7.72-14.53 1.51-23.37 2.29-15.24 1.34-33.48 2.7-54.13 3.76-16.58.85-34.71 1.51-54.08 1.83-8.18.14-16.58.21-25.18.21s-17-.07-25.18-.21c-19.37-.32-37.5-.98-54.08-1.83-20.65-1.06-38.89-2.42-54.13-3.76-31.99-2.85-50.75-5.65-50.75-5.65-10.71-174.4 0-326.82 0-326.82h368.28s10.71 152.42 0 326.82z" fill="#fd4755"/><path d="m440.104 492.978s-9.82 1.47-27.38 3.36c8.91-163.61 2.82-288.48.17-330.18h27.21s10.71 152.42 0 326.82z" fill="#c41926"/><g fill="#99e6fc"><path d="m176.704 502.388c-20.65-1.06-38.89-2.42-54.13-3.76-10.64-174.1.04-324.52.04-324.52l54.09 3.06s-10.71 150.82 0 325.22z"/><path d="m389.354 498.628c-15.24 1.34-33.48 2.7-54.13 3.76 10.71-174.4 0-325.22 0-325.22l54.09-3.06s10.68 150.42.04 324.52z"/><path d="m281.144 504.218c-8.18.14-16.58.21-25.18.21s-17-.07-25.18-.21c-10.69-174.31.01-325.01.01-325.01h50.34s10.7 150.7.01 325.01z"/></g><g><path d="m434.164 93.058-34.62 8.47-143.58 35.15-178.2-43.61c.11-5.07 1.89-10.69 7.18-17.79 8.26-11.09 34.02-5.11 48.19-16.02 11.21-8.64 14.24-28 29.88-34.54 12.93-5.41 33.14 3.56 49.49.67 13.76-2.43 27.05-17.96 43.46-17.96s29.7 15.53 43.46 17.96c5.87 1.04 12.24.55 18.6-.26 11.33-1.44 22.6-3.88 30.89-.41 15.63 6.54 18.66 25.9 29.88 34.54 14.17 10.91 39.93 4.92 48.18 16.01 5.29 7.11 7.07 12.73 7.19 17.79z" fill="#fee8c7"/><path d="m426.974 75.268c5.29 7.11 7.07 12.73 7.19 17.79l-34.62 8.47c-1.29-3.81-3.42-7.98-6.72-12.67-9.67-13.73-30.84-12.32-47.43-25.83-11.07-9.02-15.33-27.48-27.37-37.9 11.33-1.44 22.6-3.88 30.89-.41 15.63 6.54 18.66 25.9 29.88 34.54 14.17 10.91 39.93 4.92 48.18 16.01z" fill="#fccd7f"/></g><g><path d="m460.914 162.288s-12.14 2.73-34.74 6.03c-34.42 5.02-93.12 11.35-170.21 11.35-127.71 0-204.95-17.38-204.95-17.38 1.91-35.95 12.78-71.91 12.78-71.91s72.42 16.3 192.17 16.3c71.83 0 126.63-5.86 158.98-10.56 21.59-3.13 33.19-5.74 33.19-5.74s10.87 35.96 12.78 71.91z" fill="#685e68"/><path d="m460.914 162.288s-12.14 2.73-34.74 6.03c-1.34-34.69-7.98-61.1-11.23-72.2 21.59-3.13 33.19-5.74 33.19-5.74s10.87 35.96 12.78 71.91z" fill="#554e56"/></g><ellipse cx="255.964" cy="341.092" fill="#dc8758" rx="105" ry="70"/></g><g><path d="m468.403 161.891c-1.933-36.44-12.634-72.178-13.089-73.681-1.137-3.762-4.987-6.009-8.823-5.147-.12.027-2.244.495-6.246 1.256-1.374-4.409-3.761-8.842-7.252-13.53-6.119-8.217-17.04-9.694-27.601-11.123-8.213-1.111-16.706-2.26-22.022-6.353-3.555-2.737-6.41-7.547-9.433-12.64-4.354-7.335-9.288-15.649-18.062-20.835-3.565-2.106-8.164-.926-10.273 2.641-2.107 3.566-.925 8.165 2.641 10.272 5.469 3.232 9.028 9.229 12.797 15.578 10.606 19.6 21.343 23.657 42.343 26.201 7.487 1.013 15.229 2.061 17.58 5.217 2.095 2.814 3.426 5.188 4.27 7.186-40.274 8.984-187.466 16.768-260.399 8.939-9.928-.401-10.985 13.885-1.113 14.959 29.776 2.217 60.812 3.341 92.245 3.341 99.521 0 165.873-11.014 186.815-15.044 2.86 10.844 8.272 33.61 10.206 57.109-20.801 3.976-92.074 15.927-197.021 15.927s-176.223-11.949-197.024-15.925c1.936-23.506 7.35-46.277 10.209-57.118 9.894 1.891 30.033 5.353 59.233 8.503 4.116.448 7.816-2.534 8.262-6.652.444-4.118-2.534-7.817-6.652-8.261-18.003-1.942-32.585-4.026-43.305-5.759.843-2.001 2.175-4.379 4.275-7.199 2.351-3.157 10.094-4.206 17.581-5.219 9.691-1.312 20.677-2.799 29.165-9.335 5.833-4.492 9.567-10.784 13.179-16.868 4.227-7.121 8.219-13.848 15.022-16.696 5.102-2.135 13.16-1 21.692.201 8.621 1.213 17.533 2.467 26.208.936 7.343-1.298 14.041-5.313 20.519-9.195 18.207-11.44 25.08-11.428 43.272.001 6.479 3.882 13.177 7.897 20.52 9.195 7.81 1.378 16.117.449 23.293-.53 4.104-.561 6.976-4.342 6.415-8.446s-4.354-6.979-8.445-6.416c-6.326.865-12.977 1.624-18.651.622-4.617-.816-9.864-3.961-15.42-7.291-22.271-14.291-36.452-14.272-58.694 0-5.555 3.329-10.802 6.474-15.419 7.29-6.326 1.119-14.042.032-21.507-1.019-10.163-1.43-20.674-2.909-29.574.816-11.379 4.764-17.09 14.387-22.13 22.876-3.022 5.092-5.877 9.902-9.432 12.639-5.316 4.094-13.81 5.244-22.024 6.355-10.561 1.43-21.481 2.908-27.601 11.125-3.491 4.688-5.877 9.121-7.251 13.53-4.047-.773-6.175-1.246-6.243-1.261-3.833-.863-7.687 1.383-8.823 5.147-.455 1.503-11.156 37.241-13.09 73.681-.194 3.652 2.274 6.912 5.843 7.714.194.044 5.193 1.148 14.541 2.783-.583 9.669-1.659 29.27-2.587 55.967-.145 4.14 3.095 7.612 7.234 7.756 4.111.152 7.62-3.091 7.756-7.235.877-25.228 1.885-44.046 2.478-54.059 9.75 1.489 21.797 3.143 35.958 4.744-1.777 29.191-8.753 161.106-.182 310.763-16.648-1.583-28.876-3.069-35.627-3.949-5.191-88.482-4.828-170.649-3.58-224.492.096-4.141-3.184-7.576-7.324-7.672-4.122-.102-7.581 3.181-7.672 7.324-1.283 55.376-1.637 140.56 3.973 231.897.218 3.533 2.876 6.434 6.377 6.958.771.115 78.345 11.536 185.253 11.536s184.482-11.421 185.253-11.536c3.501-.524 6.159-3.424 6.377-6.958 9.355-152.337 2.304-289.531.422-321.045 9.351-1.636 14.35-2.74 14.544-2.784 3.565-.801 6.034-4.06 5.84-7.712zm-230.551 334.927c-.938-16.404-1.794-35.263-2.551-56.188-.15-4.14-3.631-7.373-7.767-7.224-4.139.15-7.373 3.627-7.224 7.766.744 20.558 1.583 39.143 2.502 55.391-13.708-.301-26.758-.771-39.028-1.352-1.384-23.666-2.45-48.166-3.172-72.933-.121-4.14-3.562-7.395-7.716-7.278-4.141.121-7.398 3.575-7.278 7.715.71 24.332 1.75 48.411 3.094 71.707-14.377-.823-27.471-1.776-39.045-2.746-8.663-148.739-1.817-280.285.01-310.531 11.854 1.174 24.898 2.275 39.05 3.206-.737 12.269-2.149 38.526-3.144 74.107-.116 4.14 3.146 7.591 7.287 7.707 4.117.123 7.597-3.143 7.707-7.288.991-35.426 2.394-61.51 3.123-73.631 12.273.661 25.278 1.185 38.969 1.517-.626 10.676-1.573 28.795-2.411 52.962-.144 4.14 3.096 7.612 7.235 7.756 4.111.152 7.619-3.092 7.755-7.235.851-24.536 1.835-43.055 2.433-53.201 11.894.16 24.671.16 36.564 0 .597 10.14 1.58 28.649 2.432 53.201.136 4.144 3.643 7.387 7.755 7.235 4.14-.144 7.379-3.616 7.235-7.756-.84-24.209-1.808-42.608-2.413-52.962 13.692-.332 26.697-.856 38.971-1.517.729 12.12 2.133 38.205 3.123 73.631.11 4.144 3.59 7.411 7.707 7.288 4.141-.116 7.403-3.566 7.287-7.707-.995-35.581-2.407-61.838-3.145-74.107 14.152-.931 27.195-2.032 39.049-3.206 1.827 30.247 8.673 161.792.01 310.531-11.574.97-24.667 1.924-39.044 2.746 1.345-23.303 2.385-47.382 3.094-71.707.12-4.141-3.138-7.595-7.278-7.715-4.16-.143-7.594 3.137-7.716 7.278-.722 24.76-1.787 49.259-3.171 72.933-12.269.581-25.32 1.051-39.028 1.352.919-16.242 1.759-34.828 2.502-55.391.149-4.139-3.085-7.616-7.224-7.766-4.169-.151-7.617 3.084-7.767 7.224-.757 20.931-1.613 39.79-2.552 56.188-11.812.145-24.404.145-36.22 0zm195.139-10.441c-6.751.88-18.98 2.366-35.628 3.949 8.571-149.657 1.595-281.572-.182-310.763 14.159-1.601 26.205-3.255 35.954-4.744 1.956 33.372 8.471 164.767-.144 311.558z"/><path d="m334.37 396.829c50.099-32.673 43.236-90.803-10.517-117.668-3.673-1.906-8.202-.474-10.111 3.203-1.907 3.677-.474 8.204 3.203 10.111 43.539 21.833 49.71 65.398 9.104 91.873-36.512 25.476-103.661 25.475-140.172 0-36.375-23.62-36.376-62.895.001-86.514 26.246-18.104 69.14-23.701 102.546-15.65 9.741 1.888 12.957-12.067 3.349-14.621-37.391-8.986-84.585-2.581-114.217 17.791-45.246 29.147-45.248 82.331.001 111.476 41.412 28.808 115.403 28.809 156.813-.001z"/><path d="m201.88 327.93c0 4.142 3.357 7.5 7.5 7.5h93.168c9.931-.344 9.923-14.66 0-15h-93.168c-4.142 0-7.5 3.358-7.5 7.5z"/><path d="m225.964 352.387c-9.931.344-9.923 14.66 0 15h60c9.931-.344 9.923-14.66 0-15z"/><path d="m188.073 55.887c-.337-9.921-14.658-9.931-15 0 0 14.924 12.142 27.065 27.065 27.065 9.926-.343 9.929-14.656 0-15-6.653 0-12.065-5.412-12.065-12.065z"/><path d="m232.551 60.028c.344 9.926 14.656 9.929 15 0 0-6.653 5.412-12.065 12.065-12.065 4.143 0 7.5-3.358 7.5-7.5s-3.357-7.5-7.5-7.5c-14.923 0-27.065 12.141-27.065 27.065z"/><path d="m303.117 55.887c0 4.142 3.357 7.5 7.5 7.5 6.652 0 12.064 5.413 12.064 12.065 0 4.142 3.357 7.5 7.5 7.5s7.5-3.358 7.5-7.5c0-14.924-12.141-27.065-27.064-27.065-4.143 0-7.5 3.358-7.5 7.5z"/></g></g></svg>